<svg xmlns="http://www.w3.org/2000/svg" version="1.0" width="512.000000pt" height="512.000000pt" viewBox="-3 -3 518 518" preserveAspectRatio="xMidYMid meet"><g id="deeditor_bgCarrier" stroke-width="0">
  <rect id="dee_c_e" x="-3" y="-3" width="518" height="518" rx="38.4" fill="#000000" strokewidth="0"/>
</g>

<g transform="translate(0.000000,512.000000) scale(0.100000,-0.100000)" fill="#ffffff" stroke="none">
<path d="M235 5018 c-92 -34 -165 -102 -208 -195 l-22 -48 -3 -1670 c-2 -1232 0 -1684 8 -1725 7 -30 22 -73 35 -96 31 -53 105 -121 163 -147 47 -22 49 -22 939 -25 l893 -3 0 -33 c0 -65 -30 -188 -61 -258 -23 -49 -49 -84 -90 -122 -81 -76 -119 -87 -324 -95 -138 -6 -178 -11 -215 -28 -56 -24 -107 -75 -131 -128 -25 -54 -25 -156 0 -210 23 -51 102 -121 150 -135 49 -14 2333 -14 2382 0 48 14 127 84 150 135 25 54 25 156 0 210 -24 53 -75 104 -131 128 -37 17 -77 22 -215 28 -205 8 -243 19 -324 95 -41 38 -66 72 -89 121 -32 70 -62 195 -62 257 l0 35 893 3 c890 3 892 3 939 25 58 26 132 94 163 147 13 23 28 66 35 96 8 41 10 493 8 1725 l-3 1670 -27 57 c-32 69 -96 134 -163 168 l-50 25 -2305 2 c-1642 1 -2314 -2 -2335 -9z m4622 -175 c19 -9 47 -34 61 -56 l27 -41 0 -1390 0 -1391 -82 -3 -83 -3 0 1331 c0 1375 1 1357 -39 1387 -23 18 -4339 18 -4362 0 -40 -30 -39 -12 -39 -1387 l0 -1331 -82 3 -83 3 0 1391 0 1390 26 40 c54 81 -176 74 2357 74 2087 0 2267 -1 2299 -17z m-247 -1598 l0 -1275 -2050 0 -2050 0 0 1275 0 1275 2050 0 2050 0 0 -1275z m340 -1640 c0 -203 -5 -229 -56 -277 -16 -15 -42 -32 -57 -37 -20 -8 -713 -11 -2278 -11 -2449 0 -2285 -4 -2341 56 -43 47 -48 74 -48 270 l0 184 2390 0 2390 0 0 -185z m-2046 -517 c2 -13 9 -60 16 -105 18 -133 82 -294 143 -360 l20 -23 -523 0 -523 0 20 23 c61 66 125 227 143 360 7 45 14 92 16 105 l4 22 340 0 340 0 4 -22z m822 -689 c31 -29 32 -84 2 -116 l-21 -23 -1146 0 -1145 0 -23 22 c-43 40 -22 122 34 139 7 2 522 3 1144 2 l1131 -1 24 -23z" fill="#ffffff"/>
<path d="M1135 4325 l-25 -24 0 -840 0 -840 24 -28 24 -28 1003 -5 1003 -5 44 -145 c47 -158 68 -190 124 -190 24 0 45 15 104 72 l75 72 107 -107 c108 -108 137 -127 177 -119 13 2 86 68 164 146 182 184 181 168 26 325 l-114 116 69 71 c56 57 70 78 70 102 0 56 -32 77 -190 124 l-145 44 -3 616 -2 615 -25 27 -24 26 -1231 0 -1231 0 -24 -25z m2365 -270 l0 -125 -1110 0 -1110 0 0 125 0 125 1110 0 1110 0 0 -125z m0 -621 c0 -249 -3 -315 -12 -311 -69 26 -394 117 -419 117 -45 0 -79 -34 -79 -77 0 -26 91 -350 117 -420 4 -10 -182 -13 -911 -13 l-916 0 0 510 0 510 1110 0 1110 0 0 -316z m70 -516 c96 -28 179 -53 183 -55 4 -3 -10 -24 -31 -47 -78 -85 -71 -109 66 -248 l106 -108 -59 -60 -59 -60 -106 104 c-137 135 -175 143 -261 59 -20 -19 -39 -31 -42 -26 -2 4 -27 87 -55 183 -28 96 -64 218 -80 271 l-29 96 96 -29 c53 -16 175 -52 271 -80z" fill="#ffffff"/>
<path d="M1482 3390 c-32 -30 -34 -47 -30 -253 3 -179 4 -187 26 -209 22 -23 23 -23 380 -26 196 -2 367 0 379 3 12 3 32 15 43 27 19 20 20 35 20 225 0 203 0 204 -25 228 l-24 25 -374 0 c-361 0 -374 -1 -395 -20z m648 -235 l0 -85 -255 0 -255 0 0 85 0 85 255 0 255 0 0 -85z" fill="#ffffff"/>
<path d="M2246 1594 c-35 -36 -34 -77 3 -115 l29 -29 282 0 282 0 29 29 c37 38 38 79 3 115 l-27 26 -287 0 -287 0 -27 -26z" fill="#ffffff"/>
</g>
</svg>