<svg xmlns="http://www.w3.org/2000/svg" version="1.0" width="512.000000pt" height="512.000000pt" viewBox="-3 -3 518 518" preserveAspectRatio="xMidYMid meet"><g id="deeditor_bgCarrier" stroke-width="0">
  <rect id="dee_c_e" x="-3" y="-3" width="518" height="518" rx="38.4" fill="#000000" strokewidth="0"/>
</g>

<g transform="translate(0.000000,512.000000) scale(0.100000,-0.100000)" fill="#ffffff" stroke="none">
<path d="M265 5106 c-107 -34 -186 -103 -233 -204 l-27 -57 -3 -1774 c-3 -1957 -6 -1841 59 -1943 37 -57 74 -90 143 -126 l51 -27 845 -5 845 -5 3 -407 2 -408 -159 0 c-140 0 -161 -2 -182 -19 -32 -26 -32 -86 0 -112 22 -18 59 -19 951 -19 892 0 929 1 951 19 32 26 32 86 0 112 -21 17 -42 19 -182 19 l-159 0 0 145 c0 132 -2 147 -20 165 -25 25 -71 26 -101 1 -23 -18 -24 -26 -27 -165 l-3 -146 -460 0 -459 0 0 410 0 410 460 0 460 0 0 -114 c0 -99 3 -117 21 -140 23 -30 72 -35 105 -12 16 12 20 31 24 138 l5 123 845 5 845 5 45 24 c69 36 115 76 149 129 65 102 62 -14 59 1943 l-3 1774 -27 57 c-37 80 -105 149 -181 184 l-62 29 -2270 2 c-1814 1 -2278 -1 -2310 -11z m4581 -155 c50 -23 98 -80 113 -135 9 -30 11 -433 9 -1481 l-3 -1440 -2405 0 -2405 0 -3 1440 c-2 1048 0 1451 9 1481 15 55 63 112 113 135 40 18 124 19 2286 19 2162 0 2246 -1 2286 -19z m122 -3448 c-3 -231 -4 -239 -27 -280 -14 -24 -42 -55 -64 -70 l-40 -28 -2277 0 -2277 0 -40 28 c-22 15 -50 46 -64 70 -23 41 -24 49 -27 280 l-3 237 2411 0 2411 0 -3 -237z" fill="#ffffff"/>
<path d="M1415 4619 c-154 -23 -321 -83 -450 -164 -109 -67 -126 -100 -82 -151 32 -37 72 -36 128 3 334 229 812 229 1157 -1 94 -62 179 -142 247 -231 l58 -75 -27 -60 c-146 -324 -149 -685 -10 -990 l37 -80 -36 -53 c-53 -77 -190 -206 -279 -265 -194 -126 -444 -187 -665 -163 -142 15 -244 45 -368 106 -343 169 -562 500 -582 880 -12 236 48 455 178 647 44 64 50 107 19 138 -22 22 -60 26 -90 10 -27 -14 -119 -164 -162 -263 -265 -612 28 -1331 645 -1583 492 -200 1040 -61 1385 351 l42 50 52 -60 c122 -141 231 -225 393 -305 312 -155 658 -168 978 -37 613 250 905 944 658 1561 -64 161 -155 291 -295 423 -213 201 -471 308 -766 320 -268 10 -502 -57 -729 -209 -73 -50 -215 -182 -264 -248 l-27 -35 -26 35 c-48 64 -199 204 -270 251 -250 167 -561 240 -849 198z m2380 -173 c442 -115 758 -503 782 -962 22 -417 -205 -802 -582 -989 -335 -167 -719 -144 -1037 60 -101 65 -252 220 -316 325 -154 251 -198 550 -121 831 30 112 118 282 193 376 145 179 354 313 571 363 118 28 128 29 275 25 105 -2 157 -9 235 -29z" fill="#ffffff"/>
<path d="M2852 3817 c-21 -23 -22 -30 -22 -293 1 -289 4 -313 54 -379 66 -86 198 -137 302 -116 31 6 77 21 101 33 57 29 126 104 141 156 8 26 12 130 12 311 0 258 -1 272 -20 291 -25 25 -71 26 -101 1 -24 -19 -24 -20 -29 -296 l-5 -277 -32 -28 c-31 -28 -87 -50 -127 -50 -35 0 -108 42 -127 74 -17 28 -19 53 -19 289 l0 258 -25 24 c-31 32 -74 33 -103 2z" fill="#ffffff"/>
<path d="M3647 3829 c-25 -15 -38 -54 -28 -83 5 -12 48 -78 96 -146 48 -68 89 -129 92 -137 3 -7 -43 -82 -103 -165 -59 -84 -112 -165 -118 -180 -20 -54 31 -107 90 -92 18 5 55 49 127 150 55 79 104 144 107 143 3 0 48 -62 100 -137 53 -75 108 -143 123 -152 24 -13 30 -13 54 0 38 21 54 56 42 88 -6 14 -56 91 -112 171 -56 79 -105 150 -109 156 -5 7 29 64 82 139 49 70 94 135 100 146 35 65 -34 135 -99 101 -10 -6 -52 -60 -95 -120 -43 -61 -81 -113 -85 -116 -4 -2 -41 44 -81 102 -40 58 -81 114 -92 125 -20 20 -63 23 -91 7z" fill="#ffffff"/>
<path d="M1124 3815 l-25 -25 3 -278 3 -277 29 -53 c56 -100 155 -156 276 -156 63 -1 85 4 133 28 71 34 122 84 151 145 19 43 21 66 24 318 l3 273 -25 25 c-32 32 -75 33 -104 2 -20 -21 -21 -33 -24 -289 l-3 -266 -25 -28 c-69 -75 -172 -81 -244 -14 l-41 39 -3 268 c-3 257 -4 269 -24 290 -29 31 -72 30 -104 -2z" fill="#ffffff"/>
<path d="M1949 3821 l-24 -19 0 -367 0 -367 28 -24 c34 -29 56 -30 91 -3 l26 20 0 370 c0 356 -1 370 -20 389 -25 25 -71 26 -101 1z" fill="#ffffff"/>
<path d="M2357 1482 c-24 -27 -22 -85 4 -108 19 -17 38 -19 199 -19 161 0 180 2 199 19 27 25 29 86 3 109 -16 15 -45 17 -204 17 -166 0 -187 -2 -201 -18z" fill="#ffffff"/>
</g>
</svg>